%FSLAX25Y25*%
%MOIN*%
G70*
G01*
G75*
G04 Layer_Color=8421504*
%ADD10R,0.06693X0.04331*%
%ADD11R,0.05906X0.03937*%
%ADD12R,0.03937X0.09449*%
%ADD13R,0.03937X0.05906*%
%ADD14R,0.02756X0.03543*%
%ADD15R,0.03543X0.02756*%
%ADD16R,0.02362X0.07087*%
%ADD17R,0.17716X0.18898*%
%ADD18R,0.05512X0.13386*%
%ADD19R,0.09646X0.08465*%
%ADD20R,0.06102X0.09646*%
%ADD21R,0.05512X0.11811*%
%ADD22C,0.03500*%
%ADD23C,0.05000*%
%ADD24C,0.10000*%
%ADD25C,0.06000*%
%ADD26C,0.01000*%
%ADD27C,0.03000*%
%ADD28C,0.01500*%
%ADD29C,0.02500*%
%ADD30C,0.15000*%
%ADD31O,0.07874X0.11811*%
%ADD32C,0.05906*%
%ADD33R,0.05906X0.05906*%
%ADD34C,0.14900*%
%ADD35C,0.09843*%
%ADD36O,0.11811X0.07874*%
%ADD37C,0.05000*%
%ADD38C,0.00984*%
%ADD39C,0.00787*%
%ADD40C,0.00800*%
%ADD41C,0.00600*%
D10*
X324000Y330685D02*
D03*
Y341315D02*
D03*
X311500Y330685D02*
D03*
Y341315D02*
D03*
D11*
X162000Y228331D02*
D03*
Y219669D02*
D03*
X373850Y260823D02*
D03*
Y252161D02*
D03*
X166669Y272500D02*
D03*
Y281161D02*
D03*
X254500Y295831D02*
D03*
Y287169D02*
D03*
X244500Y295831D02*
D03*
Y287169D02*
D03*
X234500Y295831D02*
D03*
Y287169D02*
D03*
D12*
X287500Y224693D02*
D03*
Y211307D02*
D03*
X303000Y224693D02*
D03*
Y211307D02*
D03*
D13*
X277331Y252500D02*
D03*
X268669D02*
D03*
X270831Y219500D02*
D03*
X262169D02*
D03*
X328169Y307000D02*
D03*
X336831D02*
D03*
D14*
X374953Y267000D02*
D03*
X369047D02*
D03*
X321047Y285500D02*
D03*
X326953D02*
D03*
D15*
X315500Y280453D02*
D03*
Y274547D02*
D03*
D16*
X337500Y274736D02*
D03*
X332500D02*
D03*
X327500D02*
D03*
X322500D02*
D03*
D17*
X330000Y260012D02*
D03*
D18*
X266500Y329764D02*
D03*
Y350236D02*
D03*
X235500Y329764D02*
D03*
Y350236D02*
D03*
D19*
X207701Y363000D02*
D03*
X195299D02*
D03*
D20*
X348500Y268102D02*
D03*
Y255898D02*
D03*
D21*
X294500Y349055D02*
D03*
Y330945D02*
D03*
M02*
