%FSLAX25Y25*%
%MOIN*%
G70*
G01*
G75*
G04 Layer_Color=8421504*
%ADD10R,0.05906X0.03937*%
%ADD11R,0.02362X0.07087*%
%ADD12R,0.17716X0.18898*%
%ADD13R,0.06693X0.04331*%
%ADD14R,0.03937X0.05906*%
%ADD15R,0.02756X0.03543*%
%ADD16R,0.03543X0.02756*%
%ADD17R,0.09646X0.08465*%
%ADD18R,0.06102X0.09646*%
%ADD19R,0.05512X0.11811*%
%ADD20R,0.03937X0.09449*%
%ADD21C,0.10000*%
%ADD22C,0.03000*%
%ADD23C,0.01000*%
%ADD24C,0.03500*%
%ADD25C,0.06000*%
%ADD26C,0.02500*%
%ADD27C,0.05000*%
%ADD28C,0.15000*%
%ADD29R,0.05906X0.05906*%
%ADD30C,0.05906*%
%ADD31O,0.07874X0.11811*%
%ADD32R,0.05906X0.05906*%
%ADD33C,0.14900*%
%ADD34C,0.09843*%
%ADD35O,0.11811X0.07874*%
%ADD36C,0.05000*%
%ADD37C,0.00984*%
%ADD38C,0.00800*%
%ADD39C,0.00787*%
%ADD40C,0.00600*%
D10*
X161000Y26331D02*
D03*
Y17669D02*
D03*
X262350Y75323D02*
D03*
Y66661D02*
D03*
X67000Y81669D02*
D03*
Y90331D02*
D03*
D11*
X237500Y85736D02*
D03*
X232500D02*
D03*
X227500D02*
D03*
X222500D02*
D03*
D12*
X230000Y71012D02*
D03*
D13*
X203000Y118685D02*
D03*
Y129315D02*
D03*
X194500Y118685D02*
D03*
Y129315D02*
D03*
D14*
X64169Y19500D02*
D03*
X72831D02*
D03*
X177331Y61500D02*
D03*
X168669D02*
D03*
X177331Y91500D02*
D03*
X168669D02*
D03*
X177331Y98500D02*
D03*
X168669D02*
D03*
X177331Y105500D02*
D03*
X168669D02*
D03*
X228169Y118000D02*
D03*
X236831D02*
D03*
D15*
X263953Y80500D02*
D03*
X258047D02*
D03*
X221047Y96500D02*
D03*
X226953D02*
D03*
D16*
X215500Y91453D02*
D03*
Y85547D02*
D03*
D17*
X107701Y141000D02*
D03*
X95299D02*
D03*
D18*
X248500Y79102D02*
D03*
Y66898D02*
D03*
D19*
X199000Y26445D02*
D03*
Y44555D02*
D03*
X176000Y26445D02*
D03*
Y44555D02*
D03*
X162500Y118945D02*
D03*
Y137055D02*
D03*
X139500Y118945D02*
D03*
Y137055D02*
D03*
D20*
X181500Y119807D02*
D03*
Y133193D02*
D03*
M02*
