%FSLAX25Y25*%
%MOIN*%
G70*
G01*
G75*
%ADD10R,0.06693X0.04331*%
%ADD11R,0.05906X0.03937*%
%ADD12R,0.03937X0.09449*%
%ADD13R,0.03937X0.05906*%
%ADD14R,0.02756X0.03543*%
%ADD15R,0.03543X0.02756*%
%ADD16R,0.02362X0.07087*%
%ADD17R,0.17716X0.18898*%
%ADD18R,0.05512X0.13386*%
%ADD19R,0.09646X0.08465*%
%ADD20R,0.06102X0.09646*%
%ADD21R,0.05512X0.11811*%
%ADD22C,0.03500*%
%ADD23C,0.05000*%
%ADD24C,0.10000*%
%ADD25C,0.06000*%
%ADD26C,0.01000*%
%ADD27C,0.03000*%
%ADD28C,0.01500*%
%ADD29C,0.02500*%
%ADD30C,0.15000*%
%ADD31O,0.07874X0.11811*%
%ADD32C,0.05906*%
%ADD33R,0.05906X0.05906*%
%ADD34C,0.14900*%
%ADD35C,0.09843*%
%ADD36O,0.11811X0.07874*%
%ADD37C,0.05000*%
D10*
X224000Y141685D02*
D03*
Y152315D02*
D03*
X211500Y141685D02*
D03*
Y152315D02*
D03*
D11*
X62000Y39331D02*
D03*
Y30669D02*
D03*
X273850Y71823D02*
D03*
Y63161D02*
D03*
X66669Y83500D02*
D03*
Y92161D02*
D03*
X154500Y106831D02*
D03*
Y98169D02*
D03*
X144500Y106831D02*
D03*
Y98169D02*
D03*
X134500Y106831D02*
D03*
Y98169D02*
D03*
D12*
X187500Y35693D02*
D03*
Y22307D02*
D03*
X203000Y35693D02*
D03*
Y22307D02*
D03*
D13*
X177331Y63500D02*
D03*
X168669D02*
D03*
X170831Y30500D02*
D03*
X162169D02*
D03*
X228169Y118000D02*
D03*
X236831D02*
D03*
D14*
X274953Y78000D02*
D03*
X269047D02*
D03*
X221047Y96500D02*
D03*
X226953D02*
D03*
D15*
X215500Y91453D02*
D03*
Y85547D02*
D03*
D16*
X237500Y85736D02*
D03*
X232500D02*
D03*
X227500D02*
D03*
X222500D02*
D03*
D17*
X230000Y71012D02*
D03*
D18*
X166500Y140764D02*
D03*
Y161236D02*
D03*
X135500Y140764D02*
D03*
Y161236D02*
D03*
D19*
X107701Y174000D02*
D03*
X95299D02*
D03*
D20*
X248500Y79102D02*
D03*
Y66898D02*
D03*
D21*
X194500Y160055D02*
D03*
Y141945D02*
D03*
D30*
X277000Y181500D02*
D03*
X14500Y115500D02*
D03*
X195000Y10000D02*
D03*
D31*
X231000Y42752D02*
D03*
X251000D02*
D03*
D32*
X164500Y120500D02*
D03*
X154500D02*
D03*
X144500D02*
D03*
X32000Y12500D02*
D03*
X42000D02*
D03*
X52000D02*
D03*
X62000D02*
D03*
X72000D02*
D03*
X82000D02*
D03*
X92000D02*
D03*
X102000D02*
D03*
X112000D02*
D03*
X122000D02*
D03*
X132000D02*
D03*
X142000D02*
D03*
X152000D02*
D03*
X162000D02*
D03*
X172000D02*
D03*
X227000Y107500D02*
D03*
X217000D02*
D03*
X52000Y83500D02*
D03*
X42000D02*
D03*
X32000D02*
D03*
X82169Y73331D02*
D03*
Y83331D02*
D03*
X92169Y73331D02*
D03*
Y83331D02*
D03*
X102169Y73331D02*
D03*
Y83331D02*
D03*
X112169Y73331D02*
D03*
X174500Y83500D02*
D03*
Y73500D02*
D03*
X164500Y83500D02*
D03*
Y73500D02*
D03*
X154500Y83500D02*
D03*
Y73500D02*
D03*
X144500Y83500D02*
D03*
Y73500D02*
D03*
X134500Y83500D02*
D03*
D33*
Y120500D02*
D03*
X22000Y12500D02*
D03*
X237000Y107500D02*
D03*
X22000Y83500D02*
D03*
X112169Y83331D02*
D03*
X134500Y73500D02*
D03*
D34*
X93000Y147000D02*
D03*
D35*
X108000Y140200D02*
D03*
X78000Y153800D02*
D03*
D36*
X39752Y166500D02*
D03*
Y146500D02*
D03*
M02*
