M48
;Layer_Color=9474304
;FILE_FORMAT=2:5
INCH,LZ
;TYPE=PLATED
T1F00S00C0.02800
T2F00S00C0.03543
T3F00S00C0.05000
T4F00S00C0.05512
T5F00S00C0.12000
T6F00S00C0.14900
%
T01
X0314Y02235
Y023
Y02365
Y0243
X0317Y02495
Y0256
Y02625
X03235Y0246
X033
X03365
X03425
X03485
X0338Y0235
Y02285
X03395Y02205
X03335Y0219
X03275
X03215
X0322Y0229
Y02355
X03315Y02855
X03375Y0282
X03225Y0307
X0374Y02465
X0303Y02335
X02875
X0270831Y0225831
X02685Y02455
X02645Y0301
X0159669Y0281331
X0162Y0234
X01835Y0363
X02355Y0361
X02665
X02945
X03115Y03485
X0324
T02
X0317Y02965
X0327
X0337
X02645Y03095
X02545
X02445
X02345
Y02725
X02445
X02545
X02645
X02745
Y02625
X02645
X02545
X02445
X02345
X0212169Y0262331
X0202169
X0192169
X0182169
Y0272331
X0192169
X0202169
X0212169
X0212Y02015
X0202
X0192
X0182
X0172
X0162
X0222
X0232
X0242
X0252
X0262
X0272
X0152
X0142
X0132
X0122
Y02725
X0132
X0142
X0152
T03
X0178Y03428
X0208Y03292
T04
X0331Y0231752
X0351
X0139752Y03355
Y03555
T05
X0295Y0199
X01145Y03045
X0377Y03705
T06
X0193Y0336
M30
