%FSLAX25Y25*%
%MOIN*%
G70*
G01*
G75*
G04 Layer_Physical_Order=1*
G04 Layer_Color=255*
%ADD10R,0.05906X0.03937*%
%ADD11R,0.02362X0.07087*%
%ADD12R,0.17716X0.18898*%
%ADD13R,0.06693X0.04331*%
%ADD14R,0.03937X0.05906*%
%ADD15R,0.02756X0.03543*%
%ADD16R,0.03543X0.02756*%
%ADD17R,0.09646X0.08465*%
%ADD18R,0.06102X0.09646*%
%ADD19R,0.05512X0.11811*%
%ADD20R,0.03937X0.09449*%
%ADD21C,0.10000*%
%ADD22C,0.03000*%
%ADD23C,0.01000*%
%ADD24C,0.03500*%
%ADD25C,0.06000*%
%ADD26C,0.02500*%
%ADD27C,0.05000*%
%ADD28C,0.15000*%
%ADD29R,0.05906X0.05906*%
%ADD30C,0.05906*%
%ADD31O,0.07874X0.11811*%
%ADD32R,0.05906X0.05906*%
%ADD33C,0.14900*%
%ADD34C,0.09843*%
%ADD35O,0.11811X0.07874*%
%ADD36C,0.05000*%
G36*
X242000Y72000D02*
X269000D01*
X272500Y68500D01*
Y45137D01*
X272264Y44956D01*
X271537Y44008D01*
X271337Y43525D01*
X270608Y42576D01*
X270044Y41214D01*
X269852Y39752D01*
X270044Y38290D01*
X270608Y36928D01*
X271337Y35978D01*
X271537Y35495D01*
X271869Y35063D01*
Y29504D01*
X268365Y26000D01*
X210500D01*
Y78500D01*
X242000D01*
Y72000D01*
D02*
G37*
D10*
X161000Y26331D02*
D03*
Y17669D02*
D03*
X262350Y75323D02*
D03*
Y66661D02*
D03*
X67000Y81669D02*
D03*
Y90331D02*
D03*
D11*
X237500Y85736D02*
D03*
X232500D02*
D03*
X227500D02*
D03*
X222500D02*
D03*
D12*
X230000Y71012D02*
D03*
D13*
X203000Y118685D02*
D03*
Y129315D02*
D03*
X194500Y118685D02*
D03*
Y129315D02*
D03*
D14*
X64169Y19500D02*
D03*
X72831D02*
D03*
X177331Y61500D02*
D03*
X168669D02*
D03*
X177331Y91500D02*
D03*
X168669D02*
D03*
X177331Y98500D02*
D03*
X168669D02*
D03*
X177331Y105500D02*
D03*
X168669D02*
D03*
X228169Y118000D02*
D03*
X236831D02*
D03*
D15*
X263953Y80500D02*
D03*
X258047D02*
D03*
X221047Y96500D02*
D03*
X226953D02*
D03*
D16*
X215500Y91453D02*
D03*
Y85547D02*
D03*
D17*
X107701Y141000D02*
D03*
X95299D02*
D03*
D18*
X248500Y79102D02*
D03*
Y66898D02*
D03*
D19*
X199000Y26445D02*
D03*
Y44555D02*
D03*
X176000Y26445D02*
D03*
Y44555D02*
D03*
X162500Y118945D02*
D03*
Y137055D02*
D03*
X139500Y118945D02*
D03*
Y137055D02*
D03*
D20*
X181500Y119807D02*
D03*
Y133193D02*
D03*
D21*
X245500Y127000D02*
X248500Y124000D01*
X216000Y127000D02*
X245500D01*
X206264Y117264D02*
X216000Y127000D01*
X59200Y120800D02*
X78000D01*
X55500Y124500D02*
X59200Y120800D01*
X39000Y124500D02*
X55500D01*
X278500Y42752D02*
Y94000D01*
X248500Y124000D02*
X278500Y94000D01*
X126436Y107200D02*
X136500Y117264D01*
X108000Y107200D02*
X126436D01*
X137819Y117264D02*
X206264D01*
X248500Y79102D02*
Y124000D01*
Y78000D02*
Y79102D01*
X275500Y39752D02*
X278500Y42752D01*
X83500Y141000D02*
X95299D01*
X108000Y107200D02*
Y140701D01*
D22*
X72831Y10669D02*
Y19500D01*
X222311Y85547D02*
X222500Y85736D01*
X215500Y85547D02*
X222311D01*
X221047Y96500D02*
Y100953D01*
Y92547D02*
Y96500D01*
X215500Y91453D02*
X219953D01*
X221047Y92547D01*
X217000Y105000D02*
X221047Y100953D01*
X217000Y105000D02*
Y107500D01*
D23*
X61000Y10500D02*
X63000D01*
X52000Y19500D02*
X61000Y10500D01*
X52000Y19500D02*
Y81500D01*
X83000Y10500D02*
Y33500D01*
X92500Y9500D02*
Y33000D01*
X102500Y11000D02*
Y71500D01*
X102000Y10500D02*
X102500Y11000D01*
X112500D02*
Y71500D01*
Y11000D02*
X113000Y10500D01*
X123000D02*
Y33500D01*
X133000Y10500D02*
Y33500D01*
X143000Y10500D02*
Y33500D01*
X153000Y10500D02*
Y33500D01*
X22000Y21500D02*
X33000Y10500D01*
X32000Y21500D02*
X43000Y10500D01*
X42000Y21500D02*
X53000Y10500D01*
X164500Y45000D02*
Y71500D01*
X154500Y45000D02*
Y71500D01*
X144500Y45000D02*
Y71500D01*
X134500Y45000D02*
Y71500D01*
X92500Y33000D02*
Y71500D01*
X87000Y37500D02*
Y76000D01*
X92500Y81500D01*
X42000Y21500D02*
Y81500D01*
X32000Y21500D02*
Y81500D01*
X22000Y21500D02*
Y81500D01*
X153000Y33500D02*
X164500Y45000D01*
X143000Y33500D02*
X154500Y45000D01*
X133000Y33500D02*
X144500Y45000D01*
X123000Y33500D02*
X134500Y45000D01*
X83000Y33500D02*
X87000Y37500D01*
X177331Y61500D02*
X177500Y61669D01*
X199000Y84000D02*
X199000Y84000D01*
X199000Y94000D02*
X199000Y94000D01*
D24*
X162000Y10500D02*
X163000D01*
X160000Y12500D02*
X162000Y10500D01*
X160000Y12500D02*
Y17500D01*
X226953Y96500D02*
X231500D01*
X222500Y118000D02*
X228169D01*
X236831Y107669D02*
Y118000D01*
X139500Y136815D02*
Y147000D01*
X162500Y137055D02*
Y146500D01*
X181500Y133193D02*
Y141500D01*
X203000Y129315D02*
Y136500D01*
X194500Y129315D02*
Y136500D01*
X58500Y19500D02*
X64169D01*
X176000Y44555D02*
Y53362D01*
X199000Y44555D02*
Y53362D01*
X161000Y26331D02*
Y35500D01*
X163169Y10500D02*
X173000D01*
D25*
X176000Y17500D02*
X183000Y10500D01*
X176000Y22307D02*
X269807D01*
X176000Y17500D02*
Y22307D01*
X275500Y28000D02*
Y39752D01*
X269807Y22307D02*
X275500Y28000D01*
D26*
X177331Y105500D02*
X189500D01*
X191000Y104000D01*
X199000D01*
X194500Y98500D02*
X199000Y94000D01*
X177331Y98500D02*
X194500D01*
X191500Y91500D02*
X199000Y84000D01*
X177331Y91500D02*
X191500D01*
X154000Y105500D02*
X168669D01*
X134500Y86000D02*
X154000Y105500D01*
X154500Y98500D02*
X168669D01*
X144500Y88500D02*
X154500Y98500D01*
X158500Y91500D02*
X168669D01*
X154500Y87500D02*
X158500Y91500D01*
X154500Y81500D02*
Y87500D01*
X263953Y76925D02*
Y80500D01*
X262028Y75000D02*
X263953Y76925D01*
X249898Y80500D02*
X258047D01*
X177500Y61669D02*
Y68500D01*
X174500Y71500D02*
X177500Y68500D01*
X168500Y54500D02*
Y61331D01*
X67000Y81669D02*
X82331D01*
X60000Y90500D02*
X66831D01*
X190500Y74000D02*
X199000D01*
X144500Y81500D02*
Y88500D01*
X134500Y81500D02*
Y86000D01*
D27*
X237500Y85736D02*
Y93000D01*
X232500Y85736D02*
X237500D01*
X227500D02*
X232500D01*
D28*
X15000Y15000D02*
D03*
X275000Y143500D02*
D03*
D29*
X237000Y107500D02*
D03*
X33000Y10500D02*
D03*
X22000Y81500D02*
D03*
X112500D02*
D03*
X134500Y71500D02*
D03*
D30*
X227000Y107500D02*
D03*
X217000D02*
D03*
X199000Y74000D02*
D03*
Y84000D02*
D03*
Y94000D02*
D03*
X43000Y10500D02*
D03*
X53000D02*
D03*
X63000D02*
D03*
X73000D02*
D03*
X83000D02*
D03*
X93000D02*
D03*
X103000D02*
D03*
X113000D02*
D03*
X123000D02*
D03*
X133000D02*
D03*
X143000D02*
D03*
X153000D02*
D03*
X163000D02*
D03*
X173000D02*
D03*
X183000D02*
D03*
X52000Y81500D02*
D03*
X42000D02*
D03*
X32000D02*
D03*
X82500Y71500D02*
D03*
Y81500D02*
D03*
X92500Y71500D02*
D03*
Y81500D02*
D03*
X102500Y71500D02*
D03*
Y81500D02*
D03*
X112500Y71500D02*
D03*
X174500Y81500D02*
D03*
Y71500D02*
D03*
X164500Y81500D02*
D03*
Y71500D02*
D03*
X154500Y81500D02*
D03*
Y71500D02*
D03*
X144500Y81500D02*
D03*
Y71500D02*
D03*
X134500Y81500D02*
D03*
D31*
X255500Y39752D02*
D03*
X275500D02*
D03*
D32*
X199000Y104000D02*
D03*
D33*
X93000Y114000D02*
D03*
D34*
X108000Y107200D02*
D03*
X78000Y120800D02*
D03*
D35*
X39752Y144500D02*
D03*
Y124500D02*
D03*
D36*
X249500Y50500D02*
D03*
X243000D02*
D03*
X223500Y31000D02*
D03*
X230000D02*
D03*
X236500D02*
D03*
X217000D02*
D03*
X223500Y37500D02*
D03*
X230000D02*
D03*
X236500D02*
D03*
X217000D02*
D03*
X223500Y44000D02*
D03*
X230000D02*
D03*
X236500D02*
D03*
X217000D02*
D03*
Y50500D02*
D03*
X223500D02*
D03*
X230000D02*
D03*
X236500D02*
D03*
X217000Y76500D02*
D03*
Y70000D02*
D03*
Y57000D02*
D03*
X269000D02*
D03*
X256000D02*
D03*
X262500D02*
D03*
X231500Y96500D02*
D03*
X237500Y93000D02*
D03*
X222500Y118000D02*
D03*
X203000Y136500D02*
D03*
X194500D02*
D03*
X181500Y141500D02*
D03*
X162500Y146500D02*
D03*
X139500Y147000D02*
D03*
X249500Y57000D02*
D03*
X217000Y63500D02*
D03*
X236500Y57000D02*
D03*
X243000D02*
D03*
X230000D02*
D03*
X223500D02*
D03*
X199000Y53362D02*
D03*
X83500Y141000D02*
D03*
X58500Y19500D02*
D03*
X176000Y53362D02*
D03*
X161000Y35500D02*
D03*
X168500Y54500D02*
D03*
X60000Y90500D02*
D03*
X190500Y74000D02*
D03*
M02*
