%FSLAX25Y25*%
%MOIN*%
G70*
G01*
G75*
G04 Layer_Color=8388736*
%ADD10R,0.06693X0.04331*%
%ADD11R,0.05906X0.03937*%
%ADD12R,0.03937X0.09449*%
%ADD13R,0.03937X0.05906*%
%ADD14R,0.02756X0.03543*%
%ADD15R,0.03543X0.02756*%
%ADD16R,0.02362X0.07087*%
%ADD17R,0.17716X0.18898*%
%ADD18R,0.05512X0.13386*%
%ADD19R,0.09646X0.08465*%
%ADD20R,0.06102X0.09646*%
%ADD21R,0.05512X0.11811*%
%ADD22C,0.03500*%
%ADD23C,0.05000*%
%ADD24C,0.10000*%
%ADD25C,0.06000*%
%ADD26C,0.01000*%
%ADD27C,0.03000*%
%ADD28C,0.01500*%
%ADD29C,0.02500*%
%ADD30C,0.15000*%
%ADD31O,0.07874X0.11811*%
%ADD32C,0.05906*%
%ADD33R,0.05906X0.05906*%
%ADD34C,0.14900*%
%ADD35C,0.09843*%
%ADD36O,0.11811X0.07874*%
%ADD37C,0.05000*%
%ADD38C,0.00984*%
%ADD39C,0.00787*%
%ADD40C,0.00800*%
%ADD41C,0.00600*%
%ADD42R,0.07493X0.05131*%
%ADD43R,0.06706X0.04737*%
%ADD44R,0.04737X0.10249*%
%ADD45R,0.04737X0.06706*%
%ADD46R,0.03556X0.04343*%
%ADD47R,0.04343X0.03556*%
%ADD48R,0.03162X0.07887*%
%ADD49R,0.18517X0.19698*%
%ADD50R,0.06312X0.14186*%
%ADD51R,0.10446X0.09265*%
%ADD52R,0.06902X0.10446*%
%ADD53R,0.06312X0.12611*%
%ADD54C,0.15800*%
%ADD55O,0.08674X0.12611*%
%ADD56C,0.06706*%
%ADD57R,0.06706X0.06706*%
%ADD58C,0.15700*%
%ADD59C,0.10642*%
%ADD60O,0.12611X0.08674*%
%ADD61C,0.05800*%
D42*
X324000Y330685D02*
D03*
Y341315D02*
D03*
X311500Y330685D02*
D03*
Y341315D02*
D03*
D43*
X162000Y228331D02*
D03*
Y219669D02*
D03*
X373850Y260823D02*
D03*
Y252161D02*
D03*
X166669Y272500D02*
D03*
Y281161D02*
D03*
X254500Y295831D02*
D03*
Y287169D02*
D03*
X244500Y295831D02*
D03*
Y287169D02*
D03*
X234500Y295831D02*
D03*
Y287169D02*
D03*
D44*
X287500Y224693D02*
D03*
Y211307D02*
D03*
X303000Y224693D02*
D03*
Y211307D02*
D03*
D45*
X277331Y252500D02*
D03*
X268669D02*
D03*
X270831Y219500D02*
D03*
X262169D02*
D03*
X328169Y307000D02*
D03*
X336831D02*
D03*
D46*
X374953Y267000D02*
D03*
X369047D02*
D03*
X321047Y285500D02*
D03*
X326953D02*
D03*
D47*
X315500Y280453D02*
D03*
Y274547D02*
D03*
D48*
X337500Y274736D02*
D03*
X332500D02*
D03*
X327500D02*
D03*
X322500D02*
D03*
D49*
X330000Y260012D02*
D03*
D50*
X266500Y329764D02*
D03*
Y350236D02*
D03*
X235500Y329764D02*
D03*
Y350236D02*
D03*
D51*
X207701Y363000D02*
D03*
X195299D02*
D03*
D52*
X348500Y268102D02*
D03*
Y255898D02*
D03*
D53*
X294500Y349055D02*
D03*
Y330945D02*
D03*
D54*
X377000Y370500D02*
D03*
X114500Y304500D02*
D03*
X295000Y199000D02*
D03*
D55*
X331000Y231752D02*
D03*
X351000D02*
D03*
D56*
X264500Y309500D02*
D03*
X254500D02*
D03*
X244500D02*
D03*
X132000Y201500D02*
D03*
X142000D02*
D03*
X152000D02*
D03*
X162000D02*
D03*
X172000D02*
D03*
X182000D02*
D03*
X192000D02*
D03*
X202000D02*
D03*
X212000D02*
D03*
X222000D02*
D03*
X232000D02*
D03*
X242000D02*
D03*
X252000D02*
D03*
X262000D02*
D03*
X272000D02*
D03*
X327000Y296500D02*
D03*
X317000D02*
D03*
X152000Y272500D02*
D03*
X142000D02*
D03*
X132000D02*
D03*
X182169Y262331D02*
D03*
Y272331D02*
D03*
X192169Y262331D02*
D03*
Y272331D02*
D03*
X202169Y262331D02*
D03*
Y272331D02*
D03*
X212169Y262331D02*
D03*
X274500Y272500D02*
D03*
Y262500D02*
D03*
X264500Y272500D02*
D03*
Y262500D02*
D03*
X254500Y272500D02*
D03*
Y262500D02*
D03*
X244500Y272500D02*
D03*
Y262500D02*
D03*
X234500Y272500D02*
D03*
D57*
Y309500D02*
D03*
X122000Y201500D02*
D03*
X337000Y296500D02*
D03*
X122000Y272500D02*
D03*
X212169Y272331D02*
D03*
X234500Y262500D02*
D03*
D58*
X193000Y336000D02*
D03*
D59*
X208000Y329200D02*
D03*
X178000Y342800D02*
D03*
D60*
X139752Y355500D02*
D03*
Y335500D02*
D03*
D61*
X331500Y285500D02*
D03*
X337500Y282000D02*
D03*
X322500Y307000D02*
D03*
X324000Y348500D02*
D03*
X311500D02*
D03*
X294500Y361000D02*
D03*
X266500D02*
D03*
X235500D02*
D03*
X374000Y246500D02*
D03*
X314000Y223500D02*
D03*
Y230000D02*
D03*
Y236500D02*
D03*
Y243000D02*
D03*
X338000Y228500D02*
D03*
Y235000D02*
D03*
X322000Y229000D02*
D03*
Y235500D02*
D03*
X339500Y220500D02*
D03*
X321500Y219000D02*
D03*
X327500D02*
D03*
X333500D02*
D03*
X348500Y246000D02*
D03*
X317000Y262500D02*
D03*
Y256000D02*
D03*
Y249500D02*
D03*
X336500Y246000D02*
D03*
X342500D02*
D03*
X330000D02*
D03*
X323500D02*
D03*
X303000Y233500D02*
D03*
X183500Y363000D02*
D03*
X162000Y234000D02*
D03*
X287500Y233500D02*
D03*
X270831Y225831D02*
D03*
X268500Y245500D02*
D03*
X159669Y281331D02*
D03*
X264500Y301000D02*
D03*
M02*
