M48
;Layer_Color=9474304
;FILE_FORMAT=2:5
INCH,LZ
;TYPE=PLATED
T1F00S00C0.02800
T2F00S00C0.03543
T3F00S00C0.05000
T4F00S00C0.05512
T5F00S00C0.12000
T6F00S00C0.14900
%
T01
X0217Y0031
X02235
X023
X02365
Y00375
X023
X02235
X0217
Y0044
X02235
X023
X02365
Y00505
X0243
X02495
Y0057
X0256
X02625
X0269
X0243
X02365
X023
Y00505
X02235
X0217
Y0057
Y00635
Y007
Y00765
X02235Y0057
X02315Y00965
X02375Y0093
X02225Y0118
X01905Y0074
X0199Y0053362
X0176
X01685Y00545
X0161Y00355
X00585Y00195
X006Y00905
X00835Y0141
X01395Y0147
X01625Y01465
X01815Y01415
X01945Y01365
X0203
T02
X0217Y01075
X0227
X0237
X0199Y0104
Y0094
Y0084
Y0074
X01745Y00715
Y00815
X01645
Y00715
X01545
Y00815
X01445
Y00715
X01345
Y00815
X01125
X01025
X00925
X00825
Y00715
X00925
X01025
X01125
X0113Y00105
X0103
X0093
X0083
X0073
X0063
X0123
X0133
X0143
X0153
X0163
X0173
X0183
X0053
X0043
X0033
X0032Y00815
X0042
X0052
X0022
T03
X0078Y01208
X0108Y01072
T04
X02555Y0039752
X02755
X0039752Y01245
Y01445
T05
X0015Y0015
X0275Y01435
T06
X0093Y0114
M30
