%FSLAX25Y25*%
%MOIN*%
G70*
G01*
G75*
G04 Layer_Physical_Order=1*
G04 Layer_Color=255*
%ADD10R,0.06693X0.04331*%
%ADD11R,0.05906X0.03937*%
%ADD12R,0.03937X0.09449*%
%ADD13R,0.03937X0.05906*%
%ADD14R,0.02756X0.03543*%
%ADD15R,0.03543X0.02756*%
%ADD16R,0.02362X0.07087*%
%ADD17R,0.17716X0.18898*%
%ADD18R,0.05512X0.13386*%
%ADD19R,0.09646X0.08465*%
%ADD20R,0.06102X0.09646*%
%ADD21R,0.05512X0.11811*%
%ADD22C,0.03500*%
%ADD23C,0.05000*%
%ADD24C,0.10000*%
%ADD25C,0.06000*%
%ADD26C,0.01000*%
%ADD27C,0.03000*%
%ADD28C,0.01500*%
%ADD29C,0.02500*%
%ADD30C,0.15000*%
%ADD31O,0.07874X0.11811*%
%ADD32C,0.05906*%
%ADD33R,0.05906X0.05906*%
%ADD34C,0.14900*%
%ADD35C,0.09843*%
%ADD36O,0.11811X0.07874*%
%ADD37C,0.05000*%
G36*
X342000Y261000D02*
X347391D01*
X347718Y260865D01*
X349180Y260672D01*
X349180Y260672D01*
X351531D01*
X354852Y257352D01*
Y243852D01*
X348590Y237590D01*
X347764Y236956D01*
X347131Y236131D01*
X345000Y234000D01*
Y220135D01*
X339865Y215000D01*
X310500D01*
Y243500D01*
X313500Y249500D01*
Y267500D01*
X342000D01*
Y261000D01*
D02*
G37*
D10*
X324000Y330685D02*
D03*
Y341315D02*
D03*
X311500Y330685D02*
D03*
Y341315D02*
D03*
D11*
X162000Y228331D02*
D03*
Y219669D02*
D03*
X373850Y260823D02*
D03*
Y252161D02*
D03*
X166669Y272500D02*
D03*
Y281161D02*
D03*
X254500Y295831D02*
D03*
Y287169D02*
D03*
X244500Y295831D02*
D03*
Y287169D02*
D03*
X234500Y295831D02*
D03*
Y287169D02*
D03*
D12*
X287500Y224693D02*
D03*
Y211307D02*
D03*
X303000Y224693D02*
D03*
Y211307D02*
D03*
D13*
X277331Y252500D02*
D03*
X268669D02*
D03*
X270831Y219500D02*
D03*
X262169D02*
D03*
X328169Y307000D02*
D03*
X336831D02*
D03*
D14*
X374953Y267000D02*
D03*
X369047D02*
D03*
X321047Y285500D02*
D03*
X326953D02*
D03*
D15*
X315500Y280453D02*
D03*
Y274547D02*
D03*
D16*
X337500Y274736D02*
D03*
X332500D02*
D03*
X327500D02*
D03*
X322500D02*
D03*
D17*
X330000Y260012D02*
D03*
D18*
X266500Y329764D02*
D03*
Y350236D02*
D03*
X235500Y329764D02*
D03*
Y350236D02*
D03*
D19*
X207701Y363000D02*
D03*
X195299D02*
D03*
D20*
X348500Y268102D02*
D03*
Y255898D02*
D03*
D21*
X294500Y349055D02*
D03*
Y330945D02*
D03*
D22*
X326953Y285500D02*
X331500D01*
X322500Y307000D02*
X328169D01*
X336831Y296669D02*
Y307000D01*
X252000Y201500D02*
X262000D01*
X353871Y266320D02*
X354550Y267000D01*
X152000Y201500D02*
Y272500D01*
X142000Y201500D02*
Y272500D01*
X132000Y201500D02*
Y272500D01*
X122000Y201500D02*
Y272500D01*
X235500Y353815D02*
Y361000D01*
X266500Y353815D02*
Y361000D01*
X294500Y353815D02*
Y361000D01*
X324000Y341315D02*
Y348500D01*
X311500Y341315D02*
Y348500D01*
X162000Y201500D02*
Y219669D01*
Y228331D02*
Y234000D01*
X303000Y224693D02*
Y233500D01*
X287500Y224693D02*
Y233500D01*
X270831Y219500D02*
Y225831D01*
X262000Y201500D02*
Y219669D01*
D23*
X337500Y274736D02*
Y282000D01*
X332500Y274736D02*
X337500D01*
X327500D02*
X332500D01*
D24*
X208000Y329200D02*
X234936D01*
X353871Y266320D02*
X360500Y259691D01*
X294500Y330945D02*
X323740D01*
X330815Y330685D02*
X348500Y313000D01*
Y267000D02*
Y313000D01*
X183500Y363000D02*
X195299D01*
X208000Y329200D02*
Y362701D01*
X348500Y267000D02*
X349180Y266320D01*
X353871D01*
X351000Y231752D02*
X360500Y241252D01*
Y259691D01*
X324000Y330685D02*
X330815D01*
X281945Y330945D02*
X294500D01*
X280764Y329764D02*
X281945Y330945D01*
X266500Y329764D02*
X280764D01*
X235500D02*
X266500D01*
X166800Y342800D02*
X178000D01*
X159500Y335500D02*
X166800Y342800D01*
X139752Y335500D02*
X159500D01*
D25*
X272000Y201500D02*
X281807Y211307D01*
X341307D01*
X351000Y221000D01*
Y231752D01*
D26*
X242000Y201500D02*
Y211500D01*
X232000Y201500D02*
Y211500D01*
X222000Y201500D02*
Y211500D01*
X212000Y201500D02*
Y211500D01*
X192000Y201500D02*
Y211500D01*
X182000Y201500D02*
Y211500D01*
X172000Y201500D02*
Y211500D01*
X264500Y234000D02*
Y262500D01*
X242000Y211500D02*
X264500Y234000D01*
X254500D02*
Y262500D01*
X232000Y211500D02*
X254500Y234000D01*
X244500D02*
Y262500D01*
X222000Y211500D02*
X244500Y234000D01*
X212000Y211500D02*
X234500Y234000D01*
Y262500D01*
X212169Y262169D02*
Y262331D01*
X172000Y211500D02*
X187000Y226500D01*
Y267161D01*
X192169Y272331D01*
X277331Y252500D02*
X277500Y252669D01*
X254500Y309500D02*
X254500Y309500D01*
X254500Y287169D02*
X254500Y287169D01*
X244500Y309500D02*
X244500Y309500D01*
X234500Y309500D02*
X234500Y309500D01*
X202000Y201500D02*
Y252000D01*
X212169Y262169D01*
X192000Y211500D02*
X197000Y216500D01*
Y257161D01*
X202169Y262331D01*
X182000Y211500D02*
X192169Y221669D01*
Y262331D01*
D27*
X322311Y274547D02*
X322500Y274736D01*
X315500Y274547D02*
X322311D01*
X321047Y285500D02*
Y289953D01*
Y281547D02*
Y285500D01*
X315500Y280453D02*
X319953D01*
X321047Y281547D01*
X317000Y294000D02*
X321047Y289953D01*
X317000Y294000D02*
Y296500D01*
X373850Y252161D02*
X374000Y252012D01*
Y246500D02*
Y252012D01*
D28*
X374953Y263453D02*
Y267000D01*
X373850Y262350D02*
X374953Y263453D01*
X373850Y260650D02*
Y262350D01*
X354550Y267000D02*
X369047D01*
D29*
X277500Y252669D02*
Y259500D01*
X274500Y262500D02*
X277500Y259500D01*
X268500Y245500D02*
Y252331D01*
X166669Y272500D02*
X182000D01*
X159669Y281331D02*
X166500D01*
X264500Y301000D02*
Y309500D01*
X254500Y295831D02*
Y309500D01*
X254500Y272500D02*
Y287169D01*
X244500Y295831D02*
Y309500D01*
X244500Y272500D02*
Y287169D01*
X234500Y295831D02*
Y309500D01*
X234500Y272500D02*
Y287169D01*
D30*
X377000Y370500D02*
D03*
X114500Y304500D02*
D03*
X295000Y199000D02*
D03*
D31*
X331000Y231752D02*
D03*
X351000D02*
D03*
D32*
X264500Y309500D02*
D03*
X254500D02*
D03*
X244500D02*
D03*
X132000Y201500D02*
D03*
X142000D02*
D03*
X152000D02*
D03*
X162000D02*
D03*
X172000D02*
D03*
X182000D02*
D03*
X192000D02*
D03*
X202000D02*
D03*
X212000D02*
D03*
X222000D02*
D03*
X232000D02*
D03*
X242000D02*
D03*
X252000D02*
D03*
X262000D02*
D03*
X272000D02*
D03*
X327000Y296500D02*
D03*
X317000D02*
D03*
X152000Y272500D02*
D03*
X142000D02*
D03*
X132000D02*
D03*
X182169Y262331D02*
D03*
Y272331D02*
D03*
X192169Y262331D02*
D03*
Y272331D02*
D03*
X202169Y262331D02*
D03*
Y272331D02*
D03*
X212169Y262331D02*
D03*
X274500Y272500D02*
D03*
Y262500D02*
D03*
X264500Y272500D02*
D03*
Y262500D02*
D03*
X254500Y272500D02*
D03*
Y262500D02*
D03*
X244500Y272500D02*
D03*
Y262500D02*
D03*
X234500Y272500D02*
D03*
D33*
Y309500D02*
D03*
X122000Y201500D02*
D03*
X337000Y296500D02*
D03*
X122000Y272500D02*
D03*
X212169Y272331D02*
D03*
X234500Y262500D02*
D03*
D34*
X193000Y336000D02*
D03*
D35*
X208000Y329200D02*
D03*
X178000Y342800D02*
D03*
D36*
X139752Y355500D02*
D03*
Y335500D02*
D03*
D37*
X331500Y285500D02*
D03*
X337500Y282000D02*
D03*
X322500Y307000D02*
D03*
X324000Y348500D02*
D03*
X311500D02*
D03*
X294500Y361000D02*
D03*
X266500D02*
D03*
X235500D02*
D03*
X374000Y246500D02*
D03*
X314000Y223500D02*
D03*
Y230000D02*
D03*
Y236500D02*
D03*
Y243000D02*
D03*
X338000Y228500D02*
D03*
Y235000D02*
D03*
X322000Y229000D02*
D03*
Y235500D02*
D03*
X339500Y220500D02*
D03*
X321500Y219000D02*
D03*
X327500D02*
D03*
X333500D02*
D03*
X348500Y246000D02*
D03*
X317000Y262500D02*
D03*
Y256000D02*
D03*
Y249500D02*
D03*
X336500Y246000D02*
D03*
X342500D02*
D03*
X330000D02*
D03*
X323500D02*
D03*
X303000Y233500D02*
D03*
X183500Y363000D02*
D03*
X162000Y234000D02*
D03*
X287500Y233500D02*
D03*
X270831Y225831D02*
D03*
X268500Y245500D02*
D03*
X159669Y281331D02*
D03*
X264500Y301000D02*
D03*
M02*
