%FSLAX25Y25*%
%MOIN*%
G70*
G01*
G75*
G04 Layer_Physical_Order=2*
G04 Layer_Color=16711680*
%ADD10R,0.06693X0.04331*%
%ADD11R,0.05906X0.03937*%
%ADD12R,0.03937X0.09449*%
%ADD13R,0.03937X0.05906*%
%ADD14R,0.02756X0.03543*%
%ADD15R,0.03543X0.02756*%
%ADD16R,0.02362X0.07087*%
%ADD17R,0.17716X0.18898*%
%ADD18R,0.05512X0.13386*%
%ADD19R,0.09646X0.08465*%
%ADD20R,0.06102X0.09646*%
%ADD21R,0.05512X0.11811*%
%ADD22C,0.03500*%
%ADD23C,0.05000*%
%ADD24C,0.10000*%
%ADD25C,0.06000*%
%ADD26C,0.01000*%
%ADD27C,0.03000*%
%ADD28C,0.01500*%
%ADD29C,0.02500*%
%ADD30C,0.15000*%
%ADD31O,0.07874X0.11811*%
%ADD32C,0.05906*%
%ADD33R,0.05906X0.05906*%
%ADD34C,0.14900*%
%ADD35C,0.09843*%
%ADD36O,0.11811X0.07874*%
%ADD37C,0.05000*%
G36*
X387878Y191122D02*
X298472D01*
X298351Y191607D01*
X299522Y192233D01*
X300755Y193245D01*
X301767Y194478D01*
X302520Y195885D01*
X302983Y197412D01*
X303139Y199000D01*
X302983Y200588D01*
X302520Y202115D01*
X301767Y203522D01*
X300755Y204755D01*
X299522Y205767D01*
X298115Y206520D01*
X296588Y206983D01*
X295000Y207139D01*
X293412Y206983D01*
X291885Y206520D01*
X290478Y205767D01*
X289245Y204755D01*
X288232Y203522D01*
X287480Y202115D01*
X287017Y200588D01*
X286861Y199000D01*
X287017Y197412D01*
X287480Y195885D01*
X288232Y194478D01*
X289245Y193245D01*
X290478Y192233D01*
X291649Y191607D01*
X291528Y191122D01*
X102122D01*
Y380379D01*
X387878D01*
Y191122D01*
D02*
G37*
%LPC*%
G36*
X342000Y268149D02*
X313500D01*
X313041Y267959D01*
X312851Y267500D01*
Y249653D01*
X309919Y243790D01*
X309908Y243640D01*
X309851Y243500D01*
Y215000D01*
X310041Y214541D01*
X310500Y214351D01*
X340000D01*
X340459Y214541D01*
X345459Y219541D01*
X345649Y220000D01*
Y233731D01*
X345993Y234074D01*
X346441Y233853D01*
X346424Y233720D01*
Y229784D01*
X346580Y228599D01*
X347037Y227495D01*
X347764Y226548D01*
X348712Y225820D01*
X349816Y225363D01*
X351000Y225207D01*
X352184Y225363D01*
X353288Y225820D01*
X354236Y226548D01*
X354963Y227495D01*
X355420Y228599D01*
X355576Y229784D01*
Y233720D01*
X355420Y234905D01*
X354963Y236009D01*
X354236Y236956D01*
X353288Y237684D01*
X352184Y238141D01*
X351000Y238297D01*
X350867Y238279D01*
X350646Y238728D01*
X355459Y243541D01*
X355591Y243859D01*
X372350D01*
X372437Y243792D01*
X373191Y243480D01*
X374000Y243373D01*
X374809Y243480D01*
X375563Y243792D01*
X376211Y244289D01*
X376708Y244937D01*
X377020Y245691D01*
X377127Y246500D01*
X377020Y247309D01*
X376708Y248063D01*
X376211Y248711D01*
X375563Y249208D01*
X374809Y249520D01*
X374000Y249627D01*
X373191Y249520D01*
X372437Y249208D01*
X371789Y248711D01*
X371352Y248141D01*
X355649D01*
Y257500D01*
X355459Y257959D01*
X351959Y261459D01*
X351500Y261649D01*
X342649D01*
Y267500D01*
X342459Y267959D01*
X342000Y268149D01*
D02*
G37*
G36*
X182169Y265914D02*
X181242Y265792D01*
X180378Y265434D01*
X179635Y264865D01*
X179066Y264122D01*
X178708Y263258D01*
X178586Y262331D01*
X178708Y261403D01*
X179066Y260539D01*
X179635Y259797D01*
X180378Y259227D01*
X181242Y258869D01*
X182169Y258747D01*
X183097Y258869D01*
X183961Y259227D01*
X184703Y259797D01*
X185273Y260539D01*
X185631Y261403D01*
X185753Y262331D01*
X185631Y263258D01*
X185273Y264122D01*
X184703Y264865D01*
X183961Y265434D01*
X183097Y265792D01*
X182169Y265914D01*
D02*
G37*
G36*
X192169D02*
X191242Y265792D01*
X190378Y265434D01*
X189635Y264865D01*
X189066Y264122D01*
X188708Y263258D01*
X188586Y262331D01*
X188708Y261403D01*
X189066Y260539D01*
X189635Y259797D01*
X190378Y259227D01*
X191242Y258869D01*
X192169Y258747D01*
X193097Y258869D01*
X193961Y259227D01*
X194703Y259797D01*
X195273Y260539D01*
X195631Y261403D01*
X195753Y262331D01*
X195631Y263258D01*
X195273Y264122D01*
X194703Y264865D01*
X193961Y265434D01*
X193097Y265792D01*
X192169Y265914D01*
D02*
G37*
G36*
X262000Y205083D02*
X261073Y204961D01*
X260208Y204603D01*
X259466Y204034D01*
X258897Y203292D01*
X258539Y202427D01*
X258417Y201500D01*
X258539Y200573D01*
X258897Y199708D01*
X259466Y198966D01*
X260208Y198397D01*
X261073Y198039D01*
X262000Y197917D01*
X262927Y198039D01*
X263792Y198397D01*
X264534Y198966D01*
X265103Y199708D01*
X265461Y200573D01*
X265583Y201500D01*
X265461Y202427D01*
X265103Y203292D01*
X264534Y204034D01*
X263792Y204603D01*
X262927Y204961D01*
X262000Y205083D01*
D02*
G37*
G36*
X272000D02*
X271073Y204961D01*
X270208Y204603D01*
X269466Y204034D01*
X268897Y203292D01*
X268539Y202427D01*
X268417Y201500D01*
X268539Y200573D01*
X268897Y199708D01*
X269466Y198966D01*
X270208Y198397D01*
X271073Y198039D01*
X272000Y197917D01*
X272927Y198039D01*
X273792Y198397D01*
X274534Y198966D01*
X275103Y199708D01*
X275461Y200573D01*
X275583Y201500D01*
X275461Y202427D01*
X275103Y203292D01*
X274534Y204034D01*
X273792Y204603D01*
X272927Y204961D01*
X272000Y205083D01*
D02*
G37*
G36*
X125553Y205053D02*
X118447D01*
Y197947D01*
X125553D01*
Y205053D01*
D02*
G37*
G36*
X254500Y266083D02*
X253573Y265961D01*
X252708Y265603D01*
X251966Y265034D01*
X251397Y264292D01*
X251039Y263427D01*
X250917Y262500D01*
X251039Y261573D01*
X251397Y260708D01*
X251966Y259966D01*
X252708Y259397D01*
X253573Y259039D01*
X254500Y258917D01*
X255427Y259039D01*
X256292Y259397D01*
X257034Y259966D01*
X257603Y260708D01*
X257961Y261573D01*
X258083Y262500D01*
X257961Y263427D01*
X257603Y264292D01*
X257034Y265034D01*
X256292Y265603D01*
X255427Y265961D01*
X254500Y266083D01*
D02*
G37*
G36*
X264500D02*
X263573Y265961D01*
X262708Y265603D01*
X261966Y265034D01*
X261397Y264292D01*
X261039Y263427D01*
X260917Y262500D01*
X261039Y261573D01*
X261397Y260708D01*
X261966Y259966D01*
X262708Y259397D01*
X263573Y259039D01*
X264500Y258917D01*
X265427Y259039D01*
X266292Y259397D01*
X267034Y259966D01*
X267603Y260708D01*
X267961Y261573D01*
X268083Y262500D01*
X267961Y263427D01*
X267603Y264292D01*
X267034Y265034D01*
X266292Y265603D01*
X265427Y265961D01*
X264500Y266083D01*
D02*
G37*
G36*
X274500D02*
X273573Y265961D01*
X272708Y265603D01*
X271966Y265034D01*
X271397Y264292D01*
X271039Y263427D01*
X270917Y262500D01*
X271039Y261573D01*
X271397Y260708D01*
X271966Y259966D01*
X272708Y259397D01*
X273573Y259039D01*
X274500Y258917D01*
X275427Y259039D01*
X276292Y259397D01*
X277034Y259966D01*
X277603Y260708D01*
X277961Y261573D01*
X278083Y262500D01*
X277961Y263427D01*
X277603Y264292D01*
X277034Y265034D01*
X276292Y265603D01*
X275427Y265961D01*
X274500Y266083D01*
D02*
G37*
G36*
X202169Y265914D02*
X201242Y265792D01*
X200378Y265434D01*
X199635Y264865D01*
X199066Y264122D01*
X198708Y263258D01*
X198586Y262331D01*
X198708Y261403D01*
X199066Y260539D01*
X199635Y259797D01*
X200378Y259227D01*
X201242Y258869D01*
X202169Y258747D01*
X203097Y258869D01*
X203961Y259227D01*
X204703Y259797D01*
X205273Y260539D01*
X205631Y261403D01*
X205753Y262331D01*
X205631Y263258D01*
X205273Y264122D01*
X204703Y264865D01*
X203961Y265434D01*
X203097Y265792D01*
X202169Y265914D01*
D02*
G37*
G36*
X212169D02*
X211242Y265792D01*
X210378Y265434D01*
X209635Y264865D01*
X209066Y264122D01*
X208708Y263258D01*
X208586Y262331D01*
X208708Y261403D01*
X209066Y260539D01*
X209635Y259797D01*
X210378Y259227D01*
X211242Y258869D01*
X212169Y258747D01*
X213097Y258869D01*
X213961Y259227D01*
X214703Y259797D01*
X215273Y260539D01*
X215631Y261403D01*
X215753Y262331D01*
X215631Y263258D01*
X215273Y264122D01*
X214703Y264865D01*
X213961Y265434D01*
X213097Y265792D01*
X212169Y265914D01*
D02*
G37*
G36*
X244500Y266083D02*
X243573Y265961D01*
X242708Y265603D01*
X241966Y265034D01*
X241397Y264292D01*
X241039Y263427D01*
X240917Y262500D01*
X241039Y261573D01*
X241397Y260708D01*
X241966Y259966D01*
X242708Y259397D01*
X243573Y259039D01*
X244500Y258917D01*
X245427Y259039D01*
X246292Y259397D01*
X247034Y259966D01*
X247603Y260708D01*
X247961Y261573D01*
X248083Y262500D01*
X247961Y263427D01*
X247603Y264292D01*
X247034Y265034D01*
X246292Y265603D01*
X245427Y265961D01*
X244500Y266083D01*
D02*
G37*
G36*
X252000Y205083D02*
X251073Y204961D01*
X250208Y204603D01*
X249466Y204034D01*
X248897Y203292D01*
X248539Y202427D01*
X248417Y201500D01*
X248539Y200573D01*
X248897Y199708D01*
X249466Y198966D01*
X250208Y198397D01*
X251073Y198039D01*
X252000Y197917D01*
X252927Y198039D01*
X253792Y198397D01*
X254534Y198966D01*
X255103Y199708D01*
X255461Y200573D01*
X255583Y201500D01*
X255461Y202427D01*
X255103Y203292D01*
X254534Y204034D01*
X253792Y204603D01*
X252927Y204961D01*
X252000Y205083D01*
D02*
G37*
G36*
X162000D02*
X161073Y204961D01*
X160208Y204603D01*
X159466Y204034D01*
X158897Y203292D01*
X158539Y202427D01*
X158417Y201500D01*
X158539Y200573D01*
X158897Y199708D01*
X159466Y198966D01*
X160208Y198397D01*
X161073Y198039D01*
X162000Y197917D01*
X162927Y198039D01*
X163792Y198397D01*
X164534Y198966D01*
X165103Y199708D01*
X165461Y200573D01*
X165583Y201500D01*
X165461Y202427D01*
X165103Y203292D01*
X164534Y204034D01*
X163792Y204603D01*
X162927Y204961D01*
X162000Y205083D01*
D02*
G37*
G36*
X172000D02*
X171073Y204961D01*
X170208Y204603D01*
X169466Y204034D01*
X168897Y203292D01*
X168539Y202427D01*
X168417Y201500D01*
X168539Y200573D01*
X168897Y199708D01*
X169466Y198966D01*
X170208Y198397D01*
X171073Y198039D01*
X172000Y197917D01*
X172927Y198039D01*
X173792Y198397D01*
X174534Y198966D01*
X175103Y199708D01*
X175461Y200573D01*
X175583Y201500D01*
X175461Y202427D01*
X175103Y203292D01*
X174534Y204034D01*
X173792Y204603D01*
X172927Y204961D01*
X172000Y205083D01*
D02*
G37*
G36*
X182000D02*
X181073Y204961D01*
X180208Y204603D01*
X179466Y204034D01*
X178897Y203292D01*
X178539Y202427D01*
X178417Y201500D01*
X178539Y200573D01*
X178897Y199708D01*
X179466Y198966D01*
X180208Y198397D01*
X181073Y198039D01*
X182000Y197917D01*
X182927Y198039D01*
X183792Y198397D01*
X184534Y198966D01*
X185103Y199708D01*
X185461Y200573D01*
X185583Y201500D01*
X185461Y202427D01*
X185103Y203292D01*
X184534Y204034D01*
X183792Y204603D01*
X182927Y204961D01*
X182000Y205083D01*
D02*
G37*
G36*
X132000D02*
X131073Y204961D01*
X130208Y204603D01*
X129466Y204034D01*
X128897Y203292D01*
X128539Y202427D01*
X128417Y201500D01*
X128539Y200573D01*
X128897Y199708D01*
X129466Y198966D01*
X130208Y198397D01*
X131073Y198039D01*
X132000Y197917D01*
X132927Y198039D01*
X133792Y198397D01*
X134534Y198966D01*
X135103Y199708D01*
X135461Y200573D01*
X135583Y201500D01*
X135461Y202427D01*
X135103Y203292D01*
X134534Y204034D01*
X133792Y204603D01*
X132927Y204961D01*
X132000Y205083D01*
D02*
G37*
G36*
X142000D02*
X141073Y204961D01*
X140208Y204603D01*
X139466Y204034D01*
X138897Y203292D01*
X138539Y202427D01*
X138417Y201500D01*
X138539Y200573D01*
X138897Y199708D01*
X139466Y198966D01*
X140208Y198397D01*
X141073Y198039D01*
X142000Y197917D01*
X142927Y198039D01*
X143792Y198397D01*
X144534Y198966D01*
X145103Y199708D01*
X145461Y200573D01*
X145583Y201500D01*
X145461Y202427D01*
X145103Y203292D01*
X144534Y204034D01*
X143792Y204603D01*
X142927Y204961D01*
X142000Y205083D01*
D02*
G37*
G36*
X152000D02*
X151073Y204961D01*
X150208Y204603D01*
X149466Y204034D01*
X148897Y203292D01*
X148539Y202427D01*
X148417Y201500D01*
X148539Y200573D01*
X148897Y199708D01*
X149466Y198966D01*
X150208Y198397D01*
X151073Y198039D01*
X152000Y197917D01*
X152927Y198039D01*
X153792Y198397D01*
X154534Y198966D01*
X155103Y199708D01*
X155461Y200573D01*
X155583Y201500D01*
X155461Y202427D01*
X155103Y203292D01*
X154534Y204034D01*
X153792Y204603D01*
X152927Y204961D01*
X152000Y205083D01*
D02*
G37*
G36*
X222000D02*
X221073Y204961D01*
X220208Y204603D01*
X219466Y204034D01*
X218897Y203292D01*
X218539Y202427D01*
X218417Y201500D01*
X218539Y200573D01*
X218897Y199708D01*
X219466Y198966D01*
X220208Y198397D01*
X221073Y198039D01*
X222000Y197917D01*
X222927Y198039D01*
X223792Y198397D01*
X224534Y198966D01*
X225103Y199708D01*
X225461Y200573D01*
X225583Y201500D01*
X225461Y202427D01*
X225103Y203292D01*
X224534Y204034D01*
X223792Y204603D01*
X222927Y204961D01*
X222000Y205083D01*
D02*
G37*
G36*
X232000D02*
X231073Y204961D01*
X230208Y204603D01*
X229466Y204034D01*
X228897Y203292D01*
X228539Y202427D01*
X228417Y201500D01*
X228539Y200573D01*
X228897Y199708D01*
X229466Y198966D01*
X230208Y198397D01*
X231073Y198039D01*
X232000Y197917D01*
X232927Y198039D01*
X233792Y198397D01*
X234534Y198966D01*
X235103Y199708D01*
X235461Y200573D01*
X235583Y201500D01*
X235461Y202427D01*
X235103Y203292D01*
X234534Y204034D01*
X233792Y204603D01*
X232927Y204961D01*
X232000Y205083D01*
D02*
G37*
G36*
X242000D02*
X241073Y204961D01*
X240208Y204603D01*
X239466Y204034D01*
X238897Y203292D01*
X238539Y202427D01*
X238417Y201500D01*
X238539Y200573D01*
X238897Y199708D01*
X239466Y198966D01*
X240208Y198397D01*
X241073Y198039D01*
X242000Y197917D01*
X242927Y198039D01*
X243792Y198397D01*
X244534Y198966D01*
X245103Y199708D01*
X245461Y200573D01*
X245583Y201500D01*
X245461Y202427D01*
X245103Y203292D01*
X244534Y204034D01*
X243792Y204603D01*
X242927Y204961D01*
X242000Y205083D01*
D02*
G37*
G36*
X192000D02*
X191073Y204961D01*
X190208Y204603D01*
X189466Y204034D01*
X188897Y203292D01*
X188539Y202427D01*
X188417Y201500D01*
X188539Y200573D01*
X188897Y199708D01*
X189466Y198966D01*
X190208Y198397D01*
X191073Y198039D01*
X192000Y197917D01*
X192927Y198039D01*
X193792Y198397D01*
X194534Y198966D01*
X195103Y199708D01*
X195461Y200573D01*
X195583Y201500D01*
X195461Y202427D01*
X195103Y203292D01*
X194534Y204034D01*
X193792Y204603D01*
X192927Y204961D01*
X192000Y205083D01*
D02*
G37*
G36*
X202000D02*
X201073Y204961D01*
X200208Y204603D01*
X199466Y204034D01*
X198897Y203292D01*
X198539Y202427D01*
X198417Y201500D01*
X198539Y200573D01*
X198897Y199708D01*
X199466Y198966D01*
X200208Y198397D01*
X201073Y198039D01*
X202000Y197917D01*
X202927Y198039D01*
X203792Y198397D01*
X204534Y198966D01*
X205103Y199708D01*
X205461Y200573D01*
X205583Y201500D01*
X205461Y202427D01*
X205103Y203292D01*
X204534Y204034D01*
X203792Y204603D01*
X202927Y204961D01*
X202000Y205083D01*
D02*
G37*
G36*
X212000D02*
X211073Y204961D01*
X210208Y204603D01*
X209466Y204034D01*
X208897Y203292D01*
X208539Y202427D01*
X208417Y201500D01*
X208539Y200573D01*
X208897Y199708D01*
X209466Y198966D01*
X210208Y198397D01*
X211073Y198039D01*
X212000Y197917D01*
X212927Y198039D01*
X213792Y198397D01*
X214534Y198966D01*
X215103Y199708D01*
X215461Y200573D01*
X215583Y201500D01*
X215461Y202427D01*
X215103Y203292D01*
X214534Y204034D01*
X213792Y204603D01*
X212927Y204961D01*
X212000Y205083D01*
D02*
G37*
G36*
X340553Y300053D02*
X333447D01*
Y292947D01*
X340553D01*
Y300053D01*
D02*
G37*
G36*
X114500Y312639D02*
X112912Y312483D01*
X111385Y312020D01*
X109978Y311267D01*
X108745Y310255D01*
X107732Y309022D01*
X106980Y307615D01*
X106517Y306088D01*
X106361Y304500D01*
X106517Y302912D01*
X106980Y301385D01*
X107732Y299978D01*
X108745Y298745D01*
X109978Y297732D01*
X111385Y296980D01*
X112912Y296517D01*
X114500Y296361D01*
X116088Y296517D01*
X117615Y296980D01*
X119022Y297732D01*
X120255Y298745D01*
X121267Y299978D01*
X122020Y301385D01*
X122483Y302912D01*
X122639Y304500D01*
X122483Y306088D01*
X122020Y307615D01*
X121267Y309022D01*
X120255Y310255D01*
X119022Y311267D01*
X117615Y312020D01*
X116088Y312483D01*
X114500Y312639D01*
D02*
G37*
G36*
X244500Y313083D02*
X243573Y312961D01*
X242708Y312603D01*
X241966Y312034D01*
X241397Y311292D01*
X241039Y310427D01*
X240917Y309500D01*
X241039Y308573D01*
X241397Y307708D01*
X241966Y306966D01*
X242708Y306397D01*
X243573Y306039D01*
X244500Y305917D01*
X245427Y306039D01*
X246292Y306397D01*
X247034Y306966D01*
X247603Y307708D01*
X247961Y308573D01*
X248083Y309500D01*
X247961Y310427D01*
X247603Y311292D01*
X247034Y312034D01*
X246292Y312603D01*
X245427Y312961D01*
X244500Y313083D01*
D02*
G37*
G36*
X125553Y276053D02*
X118447D01*
Y268947D01*
X125553D01*
Y276053D01*
D02*
G37*
G36*
X317000Y300083D02*
X316073Y299961D01*
X315208Y299603D01*
X314466Y299034D01*
X313897Y298292D01*
X313539Y297427D01*
X313417Y296500D01*
X313539Y295573D01*
X313897Y294708D01*
X314466Y293966D01*
X315208Y293397D01*
X316073Y293039D01*
X317000Y292917D01*
X317927Y293039D01*
X318792Y293397D01*
X319534Y293966D01*
X320103Y294708D01*
X320461Y295573D01*
X320583Y296500D01*
X320461Y297427D01*
X320103Y298292D01*
X319534Y299034D01*
X318792Y299603D01*
X317927Y299961D01*
X317000Y300083D01*
D02*
G37*
G36*
X327000D02*
X326073Y299961D01*
X325208Y299603D01*
X324466Y299034D01*
X323897Y298292D01*
X323539Y297427D01*
X323417Y296500D01*
X323539Y295573D01*
X323897Y294708D01*
X324466Y293966D01*
X325208Y293397D01*
X326073Y293039D01*
X327000Y292917D01*
X327927Y293039D01*
X328792Y293397D01*
X329534Y293966D01*
X330103Y294708D01*
X330461Y295573D01*
X330583Y296500D01*
X330461Y297427D01*
X330103Y298292D01*
X329534Y299034D01*
X328792Y299603D01*
X327927Y299961D01*
X327000Y300083D01*
D02*
G37*
G36*
X254500Y313083D02*
X253573Y312961D01*
X252708Y312603D01*
X251966Y312034D01*
X251397Y311292D01*
X251039Y310427D01*
X250917Y309500D01*
X251039Y308573D01*
X251397Y307708D01*
X251966Y306966D01*
X252708Y306397D01*
X253573Y306039D01*
X254500Y305917D01*
X255427Y306039D01*
X256292Y306397D01*
X257034Y306966D01*
X257603Y307708D01*
X257961Y308573D01*
X258083Y309500D01*
X257961Y310427D01*
X257603Y311292D01*
X257034Y312034D01*
X256292Y312603D01*
X255427Y312961D01*
X254500Y313083D01*
D02*
G37*
G36*
X141720Y340076D02*
X137784D01*
X136599Y339920D01*
X135495Y339463D01*
X134548Y338736D01*
X133820Y337788D01*
X133363Y336684D01*
X133207Y335500D01*
X133363Y334316D01*
X133820Y333212D01*
X134548Y332264D01*
X135495Y331537D01*
X136599Y331080D01*
X137784Y330924D01*
X141720D01*
X142905Y331080D01*
X144009Y331537D01*
X144956Y332264D01*
X145684Y333212D01*
X146141Y334316D01*
X146297Y335500D01*
X146141Y336684D01*
X145684Y337788D01*
X144956Y338736D01*
X144009Y339463D01*
X142905Y339920D01*
X141720Y340076D01*
D02*
G37*
G36*
X178000Y348369D02*
X176559Y348179D01*
X175216Y347623D01*
X174062Y346738D01*
X173177Y345585D01*
X172621Y344241D01*
X172431Y342800D01*
X172621Y341359D01*
X173177Y340016D01*
X174062Y338862D01*
X175216Y337977D01*
X176559Y337421D01*
X178000Y337231D01*
X179441Y337421D01*
X180784Y337977D01*
X181938Y338862D01*
X182823Y340016D01*
X183379Y341359D01*
X183569Y342800D01*
X183379Y344241D01*
X182823Y345585D01*
X181938Y346738D01*
X180784Y347623D01*
X179441Y348179D01*
X178000Y348369D01*
D02*
G37*
G36*
X377000Y378639D02*
X375412Y378483D01*
X373885Y378020D01*
X372478Y377268D01*
X371245Y376255D01*
X370233Y375022D01*
X369480Y373615D01*
X369017Y372088D01*
X368861Y370500D01*
X369017Y368912D01*
X369480Y367385D01*
X370233Y365978D01*
X371245Y364745D01*
X372478Y363733D01*
X373885Y362980D01*
X375412Y362517D01*
X377000Y362361D01*
X378588Y362517D01*
X380115Y362980D01*
X381522Y363733D01*
X382755Y364745D01*
X383768Y365978D01*
X384520Y367385D01*
X384983Y368912D01*
X385139Y370500D01*
X384983Y372088D01*
X384520Y373615D01*
X383768Y375022D01*
X382755Y376255D01*
X381522Y377268D01*
X380115Y378020D01*
X378588Y378483D01*
X377000Y378639D01*
D02*
G37*
G36*
X238053Y313053D02*
X230947D01*
Y305947D01*
X238053D01*
Y313053D01*
D02*
G37*
G36*
X208000Y334769D02*
X206559Y334579D01*
X205216Y334023D01*
X204062Y333138D01*
X203177Y331984D01*
X202621Y330641D01*
X202431Y329200D01*
X202621Y327759D01*
X203177Y326415D01*
X204062Y325262D01*
X205216Y324377D01*
X206559Y323821D01*
X208000Y323631D01*
X209441Y323821D01*
X210785Y324377D01*
X211938Y325262D01*
X212823Y326415D01*
X213379Y327759D01*
X213569Y329200D01*
X213379Y330641D01*
X212823Y331984D01*
X211938Y333138D01*
X210785Y334023D01*
X209441Y334579D01*
X208000Y334769D01*
D02*
G37*
G36*
X193000Y344089D02*
X191422Y343934D01*
X189904Y343473D01*
X188506Y342726D01*
X187280Y341720D01*
X186274Y340494D01*
X185527Y339095D01*
X185066Y337578D01*
X184911Y336000D01*
X185066Y334422D01*
X185527Y332905D01*
X186274Y331506D01*
X187280Y330280D01*
X188506Y329274D01*
X189904Y328527D01*
X191422Y328066D01*
X193000Y327911D01*
X194578Y328066D01*
X196096Y328527D01*
X197494Y329274D01*
X198720Y330280D01*
X199726Y331506D01*
X200473Y332905D01*
X200934Y334422D01*
X201089Y336000D01*
X200934Y337578D01*
X200473Y339095D01*
X199726Y340494D01*
X198720Y341720D01*
X197494Y342726D01*
X196096Y343473D01*
X194578Y343934D01*
X193000Y344089D01*
D02*
G37*
G36*
X274500Y276083D02*
X273573Y275961D01*
X272708Y275603D01*
X271966Y275034D01*
X271397Y274292D01*
X271039Y273427D01*
X270917Y272500D01*
X271039Y271573D01*
X271397Y270708D01*
X271966Y269966D01*
X272708Y269397D01*
X273573Y269039D01*
X274500Y268917D01*
X275427Y269039D01*
X276292Y269397D01*
X277034Y269966D01*
X277603Y270708D01*
X277961Y271573D01*
X278083Y272500D01*
X277961Y273427D01*
X277603Y274292D01*
X277034Y275034D01*
X276292Y275603D01*
X275427Y275961D01*
X274500Y276083D01*
D02*
G37*
G36*
X202169Y275914D02*
X201242Y275792D01*
X200378Y275434D01*
X199635Y274865D01*
X199066Y274122D01*
X198708Y273258D01*
X198586Y272331D01*
X198708Y271403D01*
X199066Y270539D01*
X199635Y269797D01*
X200378Y269227D01*
X201242Y268869D01*
X202169Y268747D01*
X203097Y268869D01*
X203961Y269227D01*
X204703Y269797D01*
X205273Y270539D01*
X205631Y271403D01*
X205753Y272331D01*
X205631Y273258D01*
X205273Y274122D01*
X204703Y274865D01*
X203961Y275434D01*
X203097Y275792D01*
X202169Y275914D01*
D02*
G37*
G36*
X215722Y275884D02*
X208616D01*
Y268778D01*
X215722D01*
Y275884D01*
D02*
G37*
G36*
X132000Y276083D02*
X131073Y275961D01*
X130208Y275603D01*
X129466Y275034D01*
X128897Y274292D01*
X128539Y273427D01*
X128417Y272500D01*
X128539Y271573D01*
X128897Y270708D01*
X129466Y269966D01*
X130208Y269397D01*
X131073Y269039D01*
X132000Y268917D01*
X132927Y269039D01*
X133792Y269397D01*
X134534Y269966D01*
X135103Y270708D01*
X135461Y271573D01*
X135583Y272500D01*
X135461Y273427D01*
X135103Y274292D01*
X134534Y275034D01*
X133792Y275603D01*
X132927Y275961D01*
X132000Y276083D01*
D02*
G37*
G36*
X238053Y266053D02*
X230947D01*
Y258947D01*
X238053D01*
Y266053D01*
D02*
G37*
G36*
X182169Y275914D02*
X181242Y275792D01*
X180378Y275434D01*
X179635Y274865D01*
X179066Y274122D01*
X178708Y273258D01*
X178586Y272331D01*
X178708Y271403D01*
X179066Y270539D01*
X179635Y269797D01*
X180378Y269227D01*
X181242Y268869D01*
X182169Y268747D01*
X183097Y268869D01*
X183961Y269227D01*
X184703Y269797D01*
X185273Y270539D01*
X185631Y271403D01*
X185753Y272331D01*
X185631Y273258D01*
X185273Y274122D01*
X184703Y274865D01*
X183961Y275434D01*
X183097Y275792D01*
X182169Y275914D01*
D02*
G37*
G36*
X192169D02*
X191242Y275792D01*
X190378Y275434D01*
X189635Y274865D01*
X189066Y274122D01*
X188708Y273258D01*
X188586Y272331D01*
X188708Y271403D01*
X189066Y270539D01*
X189635Y269797D01*
X190378Y269227D01*
X191242Y268869D01*
X192169Y268747D01*
X193097Y268869D01*
X193961Y269227D01*
X194703Y269797D01*
X195273Y270539D01*
X195631Y271403D01*
X195753Y272331D01*
X195631Y273258D01*
X195273Y274122D01*
X194703Y274865D01*
X193961Y275434D01*
X193097Y275792D01*
X192169Y275914D01*
D02*
G37*
G36*
X142000Y276083D02*
X141073Y275961D01*
X140208Y275603D01*
X139466Y275034D01*
X138897Y274292D01*
X138539Y273427D01*
X138417Y272500D01*
X138539Y271573D01*
X138897Y270708D01*
X139466Y269966D01*
X140208Y269397D01*
X141073Y269039D01*
X142000Y268917D01*
X142927Y269039D01*
X143792Y269397D01*
X144534Y269966D01*
X145103Y270708D01*
X145461Y271573D01*
X145583Y272500D01*
X145461Y273427D01*
X145103Y274292D01*
X144534Y275034D01*
X143792Y275603D01*
X142927Y275961D01*
X142000Y276083D01*
D02*
G37*
G36*
X244500D02*
X243573Y275961D01*
X242708Y275603D01*
X241966Y275034D01*
X241397Y274292D01*
X241039Y273427D01*
X240917Y272500D01*
X241039Y271573D01*
X241397Y270708D01*
X241966Y269966D01*
X242708Y269397D01*
X243573Y269039D01*
X244500Y268917D01*
X245427Y269039D01*
X246292Y269397D01*
X247034Y269966D01*
X247603Y270708D01*
X247961Y271573D01*
X248083Y272500D01*
X247961Y273427D01*
X247603Y274292D01*
X247034Y275034D01*
X246292Y275603D01*
X245427Y275961D01*
X244500Y276083D01*
D02*
G37*
G36*
X254500D02*
X253573Y275961D01*
X252708Y275603D01*
X251966Y275034D01*
X251397Y274292D01*
X251039Y273427D01*
X250917Y272500D01*
X251039Y271573D01*
X251397Y270708D01*
X251966Y269966D01*
X252708Y269397D01*
X253573Y269039D01*
X254500Y268917D01*
X255427Y269039D01*
X256292Y269397D01*
X257034Y269966D01*
X257603Y270708D01*
X257961Y271573D01*
X258083Y272500D01*
X257961Y273427D01*
X257603Y274292D01*
X257034Y275034D01*
X256292Y275603D01*
X255427Y275961D01*
X254500Y276083D01*
D02*
G37*
G36*
X264500D02*
X263573Y275961D01*
X262708Y275603D01*
X261966Y275034D01*
X261397Y274292D01*
X261039Y273427D01*
X260917Y272500D01*
X261039Y271573D01*
X261397Y270708D01*
X261966Y269966D01*
X262708Y269397D01*
X263573Y269039D01*
X264500Y268917D01*
X265427Y269039D01*
X266292Y269397D01*
X267034Y269966D01*
X267603Y270708D01*
X267961Y271573D01*
X268083Y272500D01*
X267961Y273427D01*
X267603Y274292D01*
X267034Y275034D01*
X266292Y275603D01*
X265427Y275961D01*
X264500Y276083D01*
D02*
G37*
G36*
X152000D02*
X151073Y275961D01*
X150208Y275603D01*
X149466Y275034D01*
X148897Y274292D01*
X148539Y273427D01*
X148417Y272500D01*
X148539Y271573D01*
X148897Y270708D01*
X149466Y269966D01*
X150208Y269397D01*
X151073Y269039D01*
X152000Y268917D01*
X152927Y269039D01*
X153792Y269397D01*
X154534Y269966D01*
X155103Y270708D01*
X155461Y271573D01*
X155583Y272500D01*
X155461Y273427D01*
X155103Y274292D01*
X154534Y275034D01*
X153792Y275603D01*
X152927Y275961D01*
X152000Y276083D01*
D02*
G37*
G36*
X234500D02*
X233573Y275961D01*
X232708Y275603D01*
X231966Y275034D01*
X231397Y274292D01*
X231039Y273427D01*
X230917Y272500D01*
X231039Y271573D01*
X231397Y270708D01*
X231966Y269966D01*
X232708Y269397D01*
X233573Y269039D01*
X234500Y268917D01*
X235427Y269039D01*
X236292Y269397D01*
X237034Y269966D01*
X237603Y270708D01*
X237961Y271573D01*
X238083Y272500D01*
X237961Y273427D01*
X237603Y274292D01*
X237034Y275034D01*
X236292Y275603D01*
X235427Y275961D01*
X234500Y276083D01*
D02*
G37*
%LPD*%
G36*
X342000Y261000D02*
X351500D01*
X355000Y257500D01*
Y244000D01*
X348590Y237590D01*
X347764Y236956D01*
X347131Y236131D01*
X345000Y234000D01*
Y220000D01*
X340000Y215000D01*
X310500D01*
Y243500D01*
X313500Y249500D01*
Y267500D01*
X342000D01*
Y261000D01*
D02*
G37*
D27*
X373500Y246000D02*
X374000Y246500D01*
X348500Y246000D02*
X373500D01*
D30*
X377000Y370500D02*
D03*
X114500Y304500D02*
D03*
X295000Y199000D02*
D03*
D31*
X331000Y231752D02*
D03*
X351000D02*
D03*
D32*
X264500Y309500D02*
D03*
X254500D02*
D03*
X244500D02*
D03*
X132000Y201500D02*
D03*
X142000D02*
D03*
X152000D02*
D03*
X162000D02*
D03*
X172000D02*
D03*
X182000D02*
D03*
X192000D02*
D03*
X202000D02*
D03*
X212000D02*
D03*
X222000D02*
D03*
X232000D02*
D03*
X242000D02*
D03*
X252000D02*
D03*
X262000D02*
D03*
X272000D02*
D03*
X327000Y296500D02*
D03*
X317000D02*
D03*
X152000Y272500D02*
D03*
X142000D02*
D03*
X132000D02*
D03*
X182169Y262331D02*
D03*
Y272331D02*
D03*
X192169Y262331D02*
D03*
Y272331D02*
D03*
X202169Y262331D02*
D03*
Y272331D02*
D03*
X212169Y262331D02*
D03*
X274500Y272500D02*
D03*
Y262500D02*
D03*
X264500Y272500D02*
D03*
Y262500D02*
D03*
X254500Y272500D02*
D03*
Y262500D02*
D03*
X244500Y272500D02*
D03*
Y262500D02*
D03*
X234500Y272500D02*
D03*
D33*
Y309500D02*
D03*
X122000Y201500D02*
D03*
X337000Y296500D02*
D03*
X122000Y272500D02*
D03*
X212169Y272331D02*
D03*
X234500Y262500D02*
D03*
D34*
X193000Y336000D02*
D03*
D35*
X208000Y329200D02*
D03*
X178000Y342800D02*
D03*
D36*
X139752Y355500D02*
D03*
Y335500D02*
D03*
D37*
X331500Y285500D02*
D03*
X337500Y282000D02*
D03*
X322500Y307000D02*
D03*
X324000Y348500D02*
D03*
X311500D02*
D03*
X294500Y361000D02*
D03*
X266500D02*
D03*
X235500D02*
D03*
X374000Y246500D02*
D03*
X314000Y223500D02*
D03*
Y230000D02*
D03*
Y236500D02*
D03*
Y243000D02*
D03*
X338000Y228500D02*
D03*
Y235000D02*
D03*
X322000Y229000D02*
D03*
Y235500D02*
D03*
X339500Y220500D02*
D03*
X321500Y219000D02*
D03*
X327500D02*
D03*
X333500D02*
D03*
X348500Y246000D02*
D03*
X317000Y262500D02*
D03*
Y256000D02*
D03*
Y249500D02*
D03*
X336500Y246000D02*
D03*
X342500D02*
D03*
X330000D02*
D03*
X323500D02*
D03*
X303000Y233500D02*
D03*
X183500Y363000D02*
D03*
X162000Y234000D02*
D03*
X287500Y233500D02*
D03*
X270831Y225831D02*
D03*
X268500Y245500D02*
D03*
X159669Y281331D02*
D03*
X264500Y301000D02*
D03*
M02*
