%FSLAX25Y25*%
%MOIN*%
G70*
G01*
G75*
G04 Layer_Color=16711935*
%ADD10R,0.06693X0.04331*%
%ADD11R,0.05906X0.03937*%
%ADD12R,0.03937X0.09449*%
%ADD13R,0.03937X0.05906*%
%ADD14R,0.02756X0.03543*%
%ADD15R,0.03543X0.02756*%
%ADD16R,0.02362X0.07087*%
%ADD17R,0.17716X0.18898*%
%ADD18R,0.05512X0.13386*%
%ADD19R,0.09646X0.08465*%
%ADD20R,0.06102X0.09646*%
%ADD21R,0.05512X0.11811*%
%ADD22C,0.03500*%
%ADD23C,0.05000*%
%ADD24C,0.10000*%
%ADD25C,0.06000*%
%ADD26C,0.01000*%
%ADD27C,0.03000*%
%ADD28C,0.01500*%
%ADD29C,0.02500*%
%ADD30C,0.15000*%
%ADD31O,0.07874X0.11811*%
%ADD32C,0.05906*%
%ADD33R,0.05906X0.05906*%
%ADD34C,0.14900*%
%ADD35C,0.09843*%
%ADD36O,0.11811X0.07874*%
%ADD37C,0.05000*%
%ADD38C,0.00984*%
%ADD39C,0.00787*%
%ADD40C,0.00800*%
%ADD41C,0.00600*%
%ADD42R,0.07493X0.05131*%
%ADD43R,0.06706X0.04737*%
%ADD44R,0.04737X0.10249*%
%ADD45R,0.04737X0.06706*%
%ADD46R,0.03556X0.04343*%
%ADD47R,0.04343X0.03556*%
%ADD48R,0.03162X0.07887*%
%ADD49R,0.18517X0.19698*%
%ADD50R,0.06312X0.14186*%
%ADD51R,0.10446X0.09265*%
%ADD52R,0.06902X0.10446*%
%ADD53R,0.06312X0.12611*%
%ADD54C,0.15800*%
%ADD55O,0.08674X0.12611*%
%ADD56C,0.06706*%
%ADD57R,0.06706X0.06706*%
%ADD58C,0.15700*%
%ADD59C,0.10642*%
%ADD60O,0.12611X0.08674*%
%ADD61C,0.05800*%
%ADD62C,0.00394*%
%ADD63R,0.02420X0.15512*%
%ADD64R,0.11496X0.02436*%
D62*
X220457Y140307D02*
Y153693D01*
X227543Y140307D02*
Y153693D01*
X220457Y140307D02*
X227543D01*
X220457Y153693D02*
X227543D01*
X207957Y140307D02*
Y153693D01*
X215043Y140307D02*
Y153693D01*
X207957Y140307D02*
X215043D01*
X207957Y153693D02*
X215043D01*
X275346Y76130D02*
Y79870D01*
X268653Y76130D02*
Y79870D01*
Y76130D02*
X275346D01*
X268653Y79870D02*
X275346D01*
X213630Y91847D02*
X217370D01*
X213630Y85154D02*
X217370D01*
Y91847D01*
X213630Y85154D02*
Y91847D01*
X220654Y94630D02*
Y98370D01*
X227346Y94630D02*
Y98370D01*
X220654D02*
X227346D01*
X220654Y94630D02*
X227346D01*
X220158Y82784D02*
X239843D01*
X220158Y66642D02*
X239843D01*
Y82784D01*
X220158Y66642D02*
Y82784D01*
X92504Y166244D02*
X110496D01*
X92504Y181756D02*
X110496D01*
Y166244D02*
Y181756D01*
X92504Y166244D02*
Y181756D01*
X242752Y82055D02*
X254248D01*
X242752Y63945D02*
X254248D01*
Y82055D01*
X242752Y63945D02*
Y82055D01*
D63*
X109286Y174000D02*
D03*
D64*
X248500Y80837D02*
D03*
M02*
