%FSLAX25Y25*%
%MOIN*%
G70*
G01*
G75*
G04 Layer_Color=32768*
%ADD10R,0.06693X0.04331*%
%ADD11R,0.05906X0.03937*%
%ADD12R,0.03937X0.09449*%
%ADD13R,0.03937X0.05906*%
%ADD14R,0.02756X0.03543*%
%ADD15R,0.03543X0.02756*%
%ADD16R,0.02362X0.07087*%
%ADD17R,0.17716X0.18898*%
%ADD18R,0.05512X0.13386*%
%ADD19R,0.09646X0.08465*%
%ADD20R,0.06102X0.09646*%
%ADD21R,0.05512X0.11811*%
%ADD22C,0.03500*%
%ADD23C,0.05000*%
%ADD24C,0.10000*%
%ADD25C,0.06000*%
%ADD26C,0.01000*%
%ADD27C,0.03000*%
%ADD28C,0.01500*%
%ADD29C,0.02500*%
%ADD30C,0.15000*%
%ADD31O,0.07874X0.11811*%
%ADD32C,0.05906*%
%ADD33R,0.05906X0.05906*%
%ADD34C,0.14900*%
%ADD35C,0.09843*%
%ADD36O,0.11811X0.07874*%
%ADD37C,0.05000*%
%ADD38C,0.00984*%
%ADD39C,0.00787*%
%ADD40C,0.00800*%
%ADD41C,0.00600*%
%ADD42R,0.07493X0.05131*%
%ADD43R,0.06706X0.04737*%
%ADD44R,0.04737X0.10249*%
%ADD45R,0.04737X0.06706*%
%ADD46R,0.03556X0.04343*%
%ADD47R,0.04343X0.03556*%
%ADD48R,0.03162X0.07887*%
%ADD49R,0.18517X0.19698*%
%ADD50R,0.06312X0.14186*%
%ADD51R,0.10446X0.09265*%
%ADD52R,0.06902X0.10446*%
%ADD53R,0.06312X0.12611*%
%ADD54C,0.15800*%
%ADD55O,0.08674X0.12611*%
%ADD56C,0.06706*%
%ADD57R,0.06706X0.06706*%
%ADD58C,0.15700*%
%ADD59C,0.10642*%
%ADD60O,0.12611X0.08674*%
%ADD61C,0.05800*%
%ADD62C,0.00394*%
%ADD63R,0.02420X0.15512*%
%ADD64R,0.11496X0.02436*%
%ADD65C,0.00197*%
D62*
X322031Y336000D02*
X325969D01*
X324000Y334032D02*
Y337968D01*
X320260Y328126D02*
Y343874D01*
X327740Y328126D02*
Y343874D01*
X320260Y328126D02*
X327740D01*
X320260Y343874D02*
X327740D01*
X309531Y336000D02*
X313469D01*
X311500Y334032D02*
Y337968D01*
X307760Y328126D02*
Y343874D01*
X315240Y328126D02*
Y343874D01*
X307760Y328126D02*
X315240D01*
X307760Y343874D02*
X315240D01*
X376724Y264835D02*
Y269165D01*
X367276Y264835D02*
Y269165D01*
Y264835D02*
X376724D01*
X367276Y269165D02*
X376724D01*
X370130Y267000D02*
X373870D01*
X372000Y265130D02*
Y268870D01*
X313335Y282224D02*
X317665D01*
X313335Y272776D02*
X317665D01*
Y282224D01*
X313335Y272776D02*
Y282224D01*
X315500Y275630D02*
Y279370D01*
X313630Y277500D02*
X317370D01*
X319276Y283335D02*
Y287665D01*
X328724Y283335D02*
Y287665D01*
X319276D02*
X328724D01*
X319276Y283335D02*
X328724D01*
X322130Y285500D02*
X325870D01*
X324000Y283630D02*
Y287370D01*
X330000Y262531D02*
Y266469D01*
X328031Y264500D02*
X331968D01*
X201500Y361032D02*
Y364968D01*
X199531Y363000D02*
X203468D01*
X348500Y260032D02*
Y263968D01*
X346532Y262000D02*
X350468D01*
D65*
X319173Y279165D02*
X340827D01*
X319173Y249835D02*
X340827D01*
Y279165D01*
X319173Y249835D02*
Y279165D01*
X189492Y354142D02*
X213508D01*
X189492Y371858D02*
X213508D01*
Y354142D02*
Y371858D01*
X189492Y354142D02*
Y371858D01*
X341610Y274008D02*
X355390D01*
X341610Y249992D02*
X355390D01*
Y274008D01*
X341610Y249992D02*
Y274008D01*
M02*
