M48
;Layer_Color=9474304
;FILE_FORMAT=2:5
INCH,LZ
;TYPE=PLATED
T1F00S00C0.02800
T2F00S00C0.03543
T3F00S00C0.05000
T4F00S00C0.05512
T5F00S00C0.12000
T6F00S00C0.14900
%
T01
X0214Y00345
Y0041
Y00475
Y0054
X0217Y00605
Y0067
Y00735
X02235Y0057
X023
X02365
X02425
X02485
X0238Y0046
Y00395
X02395Y00315
X02335Y003
X02275
X02215
X0222Y004
Y00465
X02315Y00965
X02375Y0093
X02225Y0118
X0274Y00575
X0203Y00445
X01875
X0170831Y0036831
X01685Y00565
X01645Y0112
X0059669Y0092331
X0062Y0045
X00835Y0174
X01355Y0172
X01665
X01945
X02115Y01595
X0224
T02
X0217Y01075
X0227
X0237
X01645Y01205
X01545
X01445
X01345
Y00835
X01445
X01545
X01645
X01745
Y00735
X01645
X01545
X01445
X01345
X0112169Y0073331
X0102169
X0092169
X0082169
Y0083331
X0092169
X0102169
X0112169
X0112Y00125
X0102
X0092
X0082
X0072
X0062
X0122
X0132
X0142
X0152
X0162
X0172
X0052
X0042
X0032
X0022
Y00835
X0032
X0042
X0052
T03
X0078Y01538
X0108Y01402
T04
X0231Y0042752
X0251
X0039752Y01465
Y01665
T05
X0195Y001
X00145Y01155
X0277Y01815
T06
X0093Y0147
M30
